<svg width="4291" height="243" viewBox="0 0 4291 243" fill="none" xmlns="http://www.w3.org/2000/svg">
<path d="M0 0H3611.72C3651.29 0 3683.37 32.0778 3683.37 71.6478V171.352C3683.37 210.922 3651.29 243 3611.72 243H662.989C633.399 243 606.854 224.811 596.172 197.217L554.881 90.5466C544.199 62.9525 517.653 44.7632 488.064 44.7632H74.4407C55.4385 44.7632 37.2146 37.2146 23.778 23.778L0 0Z" fill="#313132"/>
<path d="M4290.87 0H679.15C639.58 0 607.502 32.0778 607.502 71.6478V171.352C607.502 210.922 639.58 243 679.15 243H3627.88C3657.47 243 3684.02 224.811 3694.7 197.217L3735.99 90.5466C3746.67 62.9525 3773.22 44.7632 3802.81 44.7632H4216.43C4235.43 44.7632 4253.66 37.2146 4267.09 23.778L4290.87 0Z" fill="#313132"/>
</svg>
